<?xml version="1.0" encoding="UTF-8"?>
<svg version="1.1" xmlns="http://www.w3.org/2000/svg" width="128" height="128">
<path d="M0 0 C0.78215378 -0.0049649 1.56430756 -0.00992981 2.37016296 -0.01504517 C4.97041693 -0.02970792 7.57060984 -0.03647664 10.17089844 -0.04199219 C11.97353111 -0.04774158 13.77616376 -0.05349934 15.57879639 -0.05926514 C19.36519659 -0.06978774 23.1515755 -0.07562171 26.93798828 -0.07910156 C31.78816982 -0.08457982 36.63806969 -0.10858815 41.48816299 -0.13707352 C45.21481138 -0.15570818 48.94139215 -0.160906 52.66808319 -0.16243744 C54.45584396 -0.16546415 56.24360354 -0.1734933 58.03131866 -0.18662262 C60.53541865 -0.20369568 63.03883401 -0.20179961 65.54296875 -0.1953125 C66.28083115 -0.20452728 67.01869354 -0.21374207 67.77891541 -0.22323608 C72.23753198 -0.18709106 74.92275276 0.54734016 78.53027344 3.16113281 C79.52027344 3.65613281 79.52027344 3.65613281 80.53027344 4.16113281 C80.53027344 26.60113281 80.53027344 49.04113281 80.53027344 72.16113281 C79.87027344 72.16113281 79.21027344 72.16113281 78.53027344 72.16113281 C78.43746094 73.33675781 78.43746094 73.33675781 78.34277344 74.53613281 C77.94058594 75.83550781 77.94058594 75.83550781 77.53027344 77.16113281 C75.15527344 78.41113281 75.15527344 78.41113281 72.53027344 79.16113281 C71.04527344 79.65613281 71.04527344 79.65613281 69.53027344 80.16113281 C67.21101875 80.2561818 64.88907218 80.28907903 62.56787109 80.29052734 C61.51124519 80.29315582 61.51124519 80.29315582 60.43327332 80.2958374 C58.10360249 80.30024003 55.77400755 80.29732288 53.44433594 80.29394531 C51.8239236 80.29461896 50.20351136 80.29558949 48.58309937 80.29684448 C45.18527261 80.29831943 41.78747214 80.29617397 38.38964844 80.29150391 C34.03959363 80.28581583 29.68960064 80.28908106 25.33954811 80.29507637 C21.99207089 80.29869522 18.64460825 80.29753715 15.29713058 80.29494858 C13.69359708 80.2942825 12.09006225 80.29509657 10.4865303 80.29742813 C8.24147301 80.29997535 5.99651478 80.29608452 3.75146484 80.29052734 C2.47477936 80.28973175 1.19809387 80.28893616 -0.11727905 80.28811646 C-3.05860319 80.1767053 -5.64681762 79.98602337 -8.46972656 79.16113281 C-8.79972656 78.50113281 -9.12972656 77.84113281 -9.46972656 77.16113281 C-10.12972656 76.83113281 -10.78972656 76.50113281 -11.46972656 76.16113281 C-12.09472656 74.09863281 -12.09472656 74.09863281 -12.46972656 72.16113281 C-12.79972656 72.16113281 -13.12972656 72.16113281 -13.46972656 72.16113281 C-13.58550842 63.34695694 -13.67438408 54.53304223 -13.72878742 45.71827221 C-13.75489678 41.62530371 -13.79031777 37.5328549 -13.84692383 33.44018555 C-13.90119814 29.49145201 -13.93113701 25.54321871 -13.94411278 21.59414101 C-13.95336112 20.08656244 -13.97142132 18.57901168 -13.99837685 17.07164574 C-14.03461037 14.96179143 -14.03967491 12.85401117 -14.03735352 10.74389648 C-14.04845657 9.54254562 -14.05955963 8.34119476 -14.07099915 7.10343933 C-13.46972656 4.16113281 -13.46972656 4.16113281 -10.99674988 2.31221008 C-10.16283218 1.93235458 -9.32891449 1.55249908 -8.46972656 1.16113281 C-6.50537682 -0.80321693 -2.68452215 0.0040229 0 0 Z M-6.46972656 17.16113281 C-6.46972656 17.49113281 -6.46972656 17.82113281 -6.46972656 18.16113281 C20.24497104 18.96558359 46.82290049 19.31188528 73.53027344 18.16113281 C73.53027344 17.83113281 73.53027344 17.50113281 73.53027344 17.16113281 C47.13027344 17.16113281 20.73027344 17.16113281 -6.46972656 17.16113281 Z M-6.46972656 19.16113281 C-6.46972656 35.66113281 -6.46972656 52.16113281 -6.46972656 69.16113281 C-6.13972656 69.16113281 -5.80972656 69.16113281 -5.46972656 69.16113281 C-5.46972656 52.66113281 -5.46972656 36.16113281 -5.46972656 19.16113281 C-5.79972656 19.16113281 -6.12972656 19.16113281 -6.46972656 19.16113281 Z M-4.46972656 19.16113281 C-4.79972656 36.98113281 -5.12972656 54.80113281 -5.46972656 73.16113281 C-1.83069168 74.98065025 -0.82773537 75.41029757 2.93164062 75.38818359 C3.79223083 75.38803253 4.65282104 75.38788147 5.53948975 75.38772583 C6.45941711 75.37740326 7.37934448 75.36708069 8.32714844 75.35644531 C9.75030365 75.35220047 9.75030365 75.35220047 11.20220947 75.34786987 C14.22835983 75.33668729 17.25421274 75.31158611 20.28027344 75.28613281 C22.33365458 75.27610053 24.38704036 75.26697511 26.44042969 75.25878906 C31.47049197 75.23675422 36.50033229 75.20223744 41.53027344 75.16113281 C37.92404836 72.75698276 35.63382254 72.74029326 31.34277344 72.34863281 C24.98351122 71.64171029 20.49364231 70.23554009 15.53027344 66.16113281 C14.62277344 65.50113281 13.71527344 64.84113281 12.78027344 64.16113281 C6.8028897 58.84790283 6.8028897 58.84790283 6.14453125 54.77441406 C5.99142403 51.89312112 5.98496151 49.04599219 6.03027344 46.16113281 C6.01480469 45.17628906 5.99933594 44.19144531 5.98339844 43.17675781 C6.00712804 38.7867805 6.03407379 35.9792206 8.34277344 32.17285156 C9.06464844 31.50898437 9.78652344 30.84511719 10.53027344 30.16113281 C11.11808594 29.59007812 11.70589844 29.01902344 12.31152344 28.43066406 C12.87871094 27.94984375 13.44589844 27.46902344 14.03027344 26.97363281 C14.88105469 26.24080078 14.88105469 26.24080078 15.74902344 25.49316406 C19.35216244 22.79871143 23.2687209 21.51708135 27.53027344 20.16113281 C23.98839066 19.06284513 20.70929724 19.0466827 17.01464844 19.06347656 C15.3242041 19.0672229 15.3242041 19.0672229 13.59960938 19.07104492 C12.17422852 19.08014893 10.74884766 19.08925293 9.28027344 19.09863281 C4.74277344 19.11925781 0.20527344 19.13988281 -4.46972656 19.16113281 Z M42.53027344 21.16113281 C43.72652344 21.71800781 44.92277344 22.27488281 46.15527344 22.84863281 C50.16876891 24.85182878 53.21164313 27.1512123 56.53027344 30.16113281 C57.10777344 30.67675781 57.68527344 31.19238281 58.28027344 31.72363281 C59.77225798 33.43941503 60.70954829 35.04092619 61.53027344 37.16113281 C61.20027344 37.82113281 60.87027344 38.48113281 60.53027344 39.16113281 C61.47902344 39.75925781 62.42777344 40.35738281 63.40527344 40.97363281 C66.78336533 43.33829714 68.21803496 44.81850737 69.15527344 48.84863281 C69.27902344 49.61175781 69.40277344 50.37488281 69.53027344 51.16113281 C68.54027344 51.65613281 68.54027344 51.65613281 67.53027344 52.16113281 C69.01527344 52.65613281 69.01527344 52.65613281 70.53027344 53.16113281 C71.89239164 52.02605473 71.89239164 52.02605473 71.64379883 49.01831055 C71.64363976 47.62710584 71.6379485 46.2358952 71.62792969 44.84472656 C71.62651474 44.11367203 71.62509979 43.38261749 71.62364197 42.62940979 C71.61802752 40.28577649 71.60547265 37.94223742 71.59277344 35.59863281 C71.58776029 34.01334773 71.58319707 32.42806116 71.57910156 30.84277344 C71.5680534 26.94885671 71.55077915 23.05501076 71.53027344 19.16113281 C67.25949688 19.10318469 62.98882107 19.06755408 58.71777344 19.03613281 C57.50283203 19.019375 56.28789063 19.00261719 55.03613281 18.98535156 C53.29106445 18.97568359 53.29106445 18.97568359 51.51074219 18.96582031 C50.43719482 18.95534668 49.36364746 18.94487305 48.25756836 18.93408203 C45.31093603 18.95797738 45.31093603 18.95797738 42.53027344 21.16113281 Z M72.53027344 19.16113281 C72.3848232 23.99503217 72.2425813 28.82901276 72.10302734 33.66308594 C72.05535832 35.29982918 72.00688537 36.93654925 71.95751953 38.57324219 C71.63044171 49.44023586 71.46279033 60.28885374 71.53027344 71.16113281 C72.52027344 70.66613281 72.52027344 70.66613281 73.53027344 70.16113281 C73.53027344 53.33113281 73.53027344 36.50113281 73.53027344 19.16113281 C73.20027344 19.16113281 72.87027344 19.16113281 72.53027344 19.16113281 Z M6.53027344 36.16113281 C7.53027344 38.16113281 7.53027344 38.16113281 7.53027344 38.16113281 Z M50.53027344 44.16113281 C50.53027344 45.81113281 50.53027344 47.46113281 50.53027344 49.16113281 C53.83027344 49.16113281 57.13027344 49.16113281 60.53027344 49.16113281 C60.86027344 47.84113281 61.19027344 46.52113281 61.53027344 45.16113281 C56.84371279 42.20119977 55.43740206 41.54399755 50.53027344 44.16113281 Z M67.53027344 46.16113281 C68.53027344 50.16113281 68.53027344 50.16113281 68.53027344 50.16113281 Z M48.53027344 50.16113281 C49.53027344 52.16113281 49.53027344 52.16113281 49.53027344 52.16113281 Z M50.53027344 50.16113281 C50.53027344 50.49113281 50.53027344 50.82113281 50.53027344 51.16113281 C53.83027344 51.16113281 57.13027344 51.16113281 60.53027344 51.16113281 C60.53027344 50.83113281 60.53027344 50.50113281 60.53027344 50.16113281 C57.23027344 50.16113281 53.93027344 50.16113281 50.53027344 50.16113281 Z M61.53027344 50.16113281 C62.53027344 52.16113281 62.53027344 52.16113281 62.53027344 52.16113281 Z M6.53027344 54.16113281 C7.53027344 56.16113281 7.53027344 56.16113281 7.53027344 56.16113281 Z " fill="#072A44" transform="translate(30.4697265625,23.8388671875)"/>
<path d="M0 0 C6.22806543 3.78091123 12.74615966 7.92407639 15.53515625 14.8359375 C16.74455162 18.43104362 16.74455162 18.43104362 19.72265625 19.6484375 C22.09765625 21.2734375 22.09765625 21.2734375 22.640625 23.44921875 C22.88542546 25.73047517 23.04477198 27.98018338 23.09765625 30.2734375 C22.10765625 30.7684375 22.10765625 30.7684375 21.09765625 31.2734375 C21.09765625 31.9334375 21.09765625 32.5934375 21.09765625 33.2734375 C13.50765625 33.6034375 5.91765625 33.9334375 -1.90234375 34.2734375 C-1.90234375 39.8834375 -1.90234375 45.4934375 -1.90234375 51.2734375 C-2.89234375 50.9434375 -3.88234375 50.6134375 -4.90234375 50.2734375 C-4.90234375 50.9334375 -4.90234375 51.5934375 -4.90234375 52.2734375 C-17.50040525 51.91038097 -26.75743943 50.24809095 -35.90234375 41.2734375 C-36.68609375 40.5928125 -37.46984375 39.9121875 -38.27734375 39.2109375 C-41.94482334 34.83817337 -41.15196123 28.2815636 -41.21484375 22.8359375 C-41.24384766 22.00255859 -41.27285156 21.16917969 -41.30273438 20.31054688 C-41.36095403 14.64532667 -40.60675363 11.61582908 -36.90234375 7.2734375 C-34.83984375 6.1484375 -34.83984375 6.1484375 -32.90234375 5.2734375 C-31.89591427 3.94495059 -30.89542196 2.61193421 -29.90234375 1.2734375 C-28.91234375 0.9434375 -27.92234375 0.6134375 -26.90234375 0.2734375 C-25.76796875 -0.2421875 -24.63359375 -0.7578125 -23.46484375 -1.2890625 C-15.65381531 -4.18948115 -7.39858727 -3.78657279 0 0 Z M-39.90234375 14.2734375 C-38.90234375 16.2734375 -38.90234375 16.2734375 -38.90234375 16.2734375 Z M4.09765625 22.2734375 C4.09765625 23.9234375 4.09765625 25.5734375 4.09765625 27.2734375 C7.39765625 27.2734375 10.69765625 27.2734375 14.09765625 27.2734375 C14.42765625 25.9534375 14.75765625 24.6334375 15.09765625 23.2734375 C10.41109561 20.31350446 9.00478487 19.65630223 4.09765625 22.2734375 Z M21.09765625 24.2734375 C22.09765625 28.2734375 22.09765625 28.2734375 22.09765625 28.2734375 Z M2.09765625 28.2734375 C3.09765625 30.2734375 3.09765625 30.2734375 3.09765625 30.2734375 Z M4.09765625 28.2734375 C4.09765625 28.6034375 4.09765625 28.9334375 4.09765625 29.2734375 C7.39765625 29.2734375 10.69765625 29.2734375 14.09765625 29.2734375 C14.09765625 28.9434375 14.09765625 28.6134375 14.09765625 28.2734375 C10.79765625 28.2734375 7.49765625 28.2734375 4.09765625 28.2734375 Z M15.09765625 28.2734375 C16.09765625 30.2734375 16.09765625 30.2734375 16.09765625 30.2734375 Z M-39.90234375 32.2734375 C-38.90234375 34.2734375 -38.90234375 34.2734375 -38.90234375 34.2734375 Z " fill="#092947" transform="translate(76.90234375,45.7265625)"/>
<path d="M0 0 C0 3.63 0 7.26 0 11 C-2.64 11 -5.28 11 -8 11 C-8 11.66 -8 12.32 -8 13 C-6.865625 12.979375 -5.73125 12.95875 -4.5625 12.9375 C-1 13 -1 13 0 14 C0.14115161 16.67058851 0.04247107 19.32432238 0 22 C-3.63 22 -7.26 22 -11 22 C-11 22.66 -11 23.32 -11 24 C-10.28972656 23.98839844 -9.57945313 23.97679688 -8.84765625 23.96484375 C-7.92855469 23.95582031 -7.00945313 23.94679688 -6.0625 23.9375 C-5.14597656 23.92589844 -4.22945312 23.91429688 -3.28515625 23.90234375 C-1 24 -1 24 0 25 C0.14115161 27.67058851 0.04247107 30.32432238 0 33 C0.66 33 1.32 33 2 33 C1.979375 31.700625 1.95875 30.40125 1.9375 29.0625 C1.91600546 27.70834367 1.92851801 26.35243917 2 25 C4.16090886 22.83909114 9.2005847 23.27599869 12 23 C8.7 22.67 5.4 22.34 2 22 C2 19.36 2 16.72 2 14 C4.31 13.34 6.62 12.68 9 12 C6.69 11.67 4.38 11.34 2 11 C2 7.37 2 3.74 2 0 C6.05117476 2.02558738 7.32328111 3.52026544 10 7 C10.66 7.33 11.32 7.66 12 8 C11.34 6.02 10.68 4.04 10 2 C13.93673644 3.31224548 16.22719294 4.91910327 19 8 C16.69 8.99 14.38 9.98 12 11 C12.66 13.31 13.32 15.62 14 18 C14.33 16.02 14.66 14.04 15 12 C16.98 11.67 18.96 11.34 21 11 C21.66 12.32 22.32 13.64 23 15 C21.68 15 20.36 15 19 15 C18.24572703 19.97906259 18.24572703 19.97906259 18 25 C17.01 25 16.02 25 15 25 C14.7525 25.639375 14.505 26.27875 14.25 26.9375 C13 29 13 29 10.9375 29.5625 C9.9784375 29.7790625 9.9784375 29.7790625 9 30 C8.67 30.99 8.34 31.98 8 33 C6.35 33 4.7 33 3 33 C3 33.66 3 34.32 3 35 C4.65 35 6.3 35 8 35 C8.48951049 41.36363636 8.48951049 41.36363636 6.125 44.4375 C4 46 4 46 2 46 C1.505 41.05 1.505 41.05 1 36 C0.67 39.3 0.34 42.6 0 46 C-4.41889613 44.64978174 -6.34345343 42.73884332 -9 39 C-8.67 40.65 -8.34 42.3 -8 44 C-12.35535069 42.83857315 -14.64619703 41.92300495 -17 38 C-15.68 37.34 -14.36 36.68 -13 36 C-15.31 35.67 -17.62 35.34 -20 35 C-21.80230168 31.17010894 -22.19622241 28.21878192 -22 24 C-19.36 24 -16.72 24 -14 24 C-14 23.34 -14 22.68 -14 22 C-16.97 22 -19.94 22 -23 22 C-22.53199289 17.94393835 -22.12046792 14.53411321 -20 11 C-18.5459375 11.0309375 -18.5459375 11.0309375 -17.0625 11.0625 C-14.12534105 11.35618499 -14.12534105 11.35618499 -13 10 C-13.99 9.34 -14.98 8.68 -16 8 C-16 7.34 -16 6.68 -16 6 C-14.03852126 4.61061923 -12.03833424 3.2739589 -10 2 C-8 3 -8 3 -7 5 C-6.21625 4.175 -5.4325 3.35 -4.625 2.5 C-2 0 -2 0 0 0 Z " fill="#294E6C" transform="translate(63,47)"/>
<path d="M0 0 C0 3.63 0 7.26 0 11 C-2.64 11 -5.28 11 -8 11 C-8 11.66 -8 12.32 -8 13 C-6.865625 12.979375 -5.73125 12.95875 -4.5625 12.9375 C-1 13 -1 13 0 14 C0.14115161 16.67058851 0.04247107 19.32432238 0 22 C-3.63 22 -7.26 22 -11 22 C-11 22.66 -11 23.32 -11 24 C-7.7 24 -4.4 24 -1 24 C-1 24.33 -1 24.66 -1 25 C-3.97 25 -6.94 25 -10 25 C-10 27.64 -10 30.28 -10 33 C-7.03 33 -4.06 33 -1 33 C-1 33.99 -1 34.98 -1 36 C-3.31 36 -5.62 36 -8 36 C-9.01540112 40.10223585 -9.01540112 40.10223585 -8 44 C-12.35535069 42.83857315 -14.64619703 41.92300495 -17 38 C-15.68 37.34 -14.36 36.68 -13 36 C-15.31 35.67 -17.62 35.34 -20 35 C-21.80230168 31.17010894 -22.19622241 28.21878192 -22 24 C-19.36 24 -16.72 24 -14 24 C-14 23.34 -14 22.68 -14 22 C-16.97 22 -19.94 22 -23 22 C-22.53199289 17.94393835 -22.12046792 14.53411321 -20 11 C-18.5459375 11.0309375 -18.5459375 11.0309375 -17.0625 11.0625 C-14.12534105 11.35618499 -14.12534105 11.35618499 -13 10 C-13.99 9.34 -14.98 8.68 -16 8 C-16 7.34 -16 6.68 -16 6 C-14.03852126 4.61061923 -12.03833424 3.2739589 -10 2 C-8 3 -8 3 -7 5 C-6.21625 4.175 -5.4325 3.35 -4.625 2.5 C-2 0 -2 0 0 0 Z " fill="#234866" transform="translate(63,47)"/>
<path d="M0 0 C7.92 0 15.84 0 24 0 C24.061875 2.578125 24.12375 5.15625 24.1875 7.8125 C24.21481201 8.62050049 24.24212402 9.42850098 24.27026367 10.26098633 C24.30316265 13.08074675 24.28230166 15.4309157 23.015625 17.984375 C19.67493155 19.66767015 16.21692893 19.47125207 12.5625 19.4375 C11.79873047 19.45748047 11.03496094 19.47746094 10.24804688 19.49804688 C6.68405754 19.49494506 4.56302103 19.34479582 1.48046875 17.45703125 C-0.55844798 14.07318265 -0.43604375 11.06472003 -0.25 7.25 C-0.1675 4.8575 -0.085 2.465 0 0 Z " fill="#72ACD7" transform="translate(74,80)"/>
<path d="M0 0 C3.3 0 6.6 0 10 0 C10 2.64 10 5.28 10 8 C10.66 8 11.32 8 12 8 C12 5.36 12 2.72 12 0 C15.3 0 18.6 0 22 0 C21.67 1.65 21.34 3.3 21 5 C20.34 5 19.68 5 19 5 C18.67 5.99 18.34 6.98 18 8 C16.35 8 14.7 8 13 8 C13 8.66 13 9.32 13 10 C14.65 10 16.3 10 18 10 C18.48951049 16.36363636 18.48951049 16.36363636 16.125 19.4375 C14 21 14 21 12 21 C11.67 17.7 11.34 14.4 11 11 C10.67 14.3 10.34 17.6 10 21 C6.72847271 20.02738378 5.25454871 19.34232413 3.1875 16.5625 C2 14 2 14 2 11 C4.31 11 6.62 11 9 11 C9 10.01 9 9.02 9 8 C6.03 8 3.06 8 0 8 C0 5.36 0 2.72 0 0 Z " fill="#365E7D" transform="translate(53,72)"/>
<path d="M0 0 C2 1 2 1 3.3125 4.375 C4.61809655 8.13852371 4.61809655 8.13852371 7.625 9.375 C10 11 10 11 10.54296875 13.17578125 C10.78776921 15.45703767 10.94711573 17.70674588 11 20 C10.34 20.33 9.68 20.66 9 21 C9 21.66 9 22.32 9 23 C1.41 23 -6.18 23 -14 23 C-13.01 22.34 -12.02 21.68 -11 21 C-10.67 20.34 -10.34 19.68 -10 19 C-8 17 -8 17 -5.6171875 16.8046875 C-4.71226563 16.82789062 -3.80734375 16.85109375 -2.875 16.875 C-1.50988281 16.90207031 -1.50988281 16.90207031 -0.1171875 16.9296875 C0.58148438 16.95289062 1.28015625 16.97609375 2 17 C1.67 15.35 1.34 13.7 1 12 C-3.05431692 10.84162374 -5.21812119 11.16308743 -9 13 C-8.42415568 10.61435923 -7.77772405 8.33317216 -7 6 C-5.68 6 -4.36 6 -3 6 C-2.67 5.01 -2.34 4.02 -2 3 C-1.34 2.01 -0.68 1.02 0 0 Z M9 14 C10 18 10 18 10 18 Z M3 18 C4 20 4 20 4 20 Z " fill="#051F3A" transform="translate(89,56)"/>
<path d="M0 0 C8.78571429 -0.14285714 8.78571429 -0.14285714 12 2 C10.02 2.99 10.02 2.99 8 4 C8.01160156 4.62648438 8.02320312 5.25296875 8.03515625 5.8984375 C8.04417969 6.71570313 8.05320312 7.53296875 8.0625 8.375 C8.07410156 9.18710938 8.08570312 9.99921875 8.09765625 10.8359375 C8 13 8 13 7 15 C8.65 15 10.3 15 12 15 C12 15.33 12 15.66 12 16 C13.65 16.33 15.3 16.66 17 17 C17 17.33 17 17.66 17 18 C14.5622037 18.05397335 12.12560315 18.09365616 9.6875 18.125 C8.65206055 18.15013672 8.65206055 18.15013672 7.59570312 18.17578125 C3.82864604 18.21217794 2.21568296 18.14378864 -1 16 C-1.05632424 13.19564589 -0.95814702 10.64853322 -0.6875 7.875 C-0.62626953 7.12089844 -0.56503906 6.36679688 -0.50195312 5.58984375 C-0.3485467 3.72536562 -0.17606541 1.86247502 0 0 Z " fill="#75AFDC" transform="translate(76,81)"/>
<path d="M0 0 C0.66 0 1.32 0 2 0 C2 3.63 2 7.26 2 11 C4.31 11 6.62 11 9 11 C9.33 11.66 9.66 12.32 10 13 C7.69 13.33 5.38 13.66 3 14 C2.67 16.64 2.34 19.28 2 22 C5.63 22 9.26 22 13 22 C12.67 22.66 12.34 23.32 12 24 C9.93359375 24.4140625 9.93359375 24.4140625 7.4375 24.625 C6.61121094 24.69976562 5.78492187 24.77453125 4.93359375 24.8515625 C3.97646484 24.92503906 3.97646484 24.92503906 3 25 C2.67 27.64 2.34 30.28 2 33 C1.34 33 0.68 33 0 33 C-0.33 30.36 -0.66 27.72 -1 25 C-4.3 24.67 -7.6 24.34 -11 24 C-11 23.34 -11 22.68 -11 22 C-7.37 22 -3.74 22 0 22 C-0.33 19.36 -0.66 16.72 -1 14 C-3.31 13.67 -5.62 13.34 -8 13 C-8 12.34 -8 11.68 -8 11 C-5.36 11 -2.72 11 0 11 C0 7.37 0 3.74 0 0 Z " fill="#032543" transform="translate(63,47)"/>
<path d="M0 0 C1.32 0.33 2.64 0.66 4 1 C3.51775271 5.13354822 3.01114519 8.95541924 2 13 C4.97 13 7.94 13 11 13 C11 13.66 11 14.32 11 15 C8.36 15 5.72 15 3 15 C3.02320313 15.60328125 3.04640625 16.2065625 3.0703125 16.828125 C3.08835937 17.62734375 3.10640625 18.4265625 3.125 19.25 C3.14820313 20.03890625 3.17140625 20.8278125 3.1953125 21.640625 C2.9828378 24.20731941 2.28654105 25.7916067 1 28 C-1.12354224 26.29302438 -1.93210988 25.42167556 -2.37231445 22.6875 C-2.3693335 21.800625 -2.36635254 20.91375 -2.36328125 20 C-2.36231445 18.5459375 -2.36231445 18.5459375 -2.36132812 17.0625 C-2.34521484 16.051875 -2.32910156 15.04125 -2.3125 14 C-2.31572266 12.989375 -2.31894531 11.97875 -2.32226562 10.9375 C-2.26714286 3.40071429 -2.26714286 3.40071429 0 0 Z M-1 4 C0 6 0 6 0 6 Z M-1 22 C0 24 0 24 0 24 Z " fill="#052146" transform="translate(38,56)"/>
<path d="M0 0 C0 3.63 0 7.26 0 11 C-2.97 11 -5.94 11 -9 11 C-9 10.34 -9 9.68 -9 9 C-10.98 9 -12.96 9 -15 9 C-15.33 8.01 -15.66 7.02 -16 6 C-14.02 4.68 -12.04 3.36 -10 2 C-8 3 -8 3 -7 5 C-6.21625 4.175 -5.4325 3.35 -4.625 2.5 C-2 0 -2 0 0 0 Z " fill="#2A506E" transform="translate(63,47)"/>
<path d="M0 0 C0.33 0.99 0.66 1.98 1 3 C-0.32 3 -1.64 3 -3 3 C-3.75427297 7.97906259 -3.75427297 7.97906259 -4 13 C-4.99 13 -5.98 13 -7 13 C-7.66 14.32 -8.32 15.64 -9 17 C-9 15.68 -9 14.36 -9 13 C-12.3 13 -15.6 13 -19 13 C-19 12.67 -19 12.34 -19 12 C-14.545 11.505 -14.545 11.505 -10 11 C-13.3 10.67 -16.6 10.34 -20 10 C-20 7.36 -20 4.72 -20 2 C-19.67 2 -19.34 2 -19 2 C-19 4.31 -19 6.62 -19 9 C-16.03 9 -13.06 9 -10 9 C-10 7.35 -10 5.7 -10 4 C-9.34 4.66 -8.68 5.32 -8 6 C-7.87625 5.030625 -7.7525 4.06125 -7.625 3.0625 C-7.41875 2.051875 -7.2125 1.04125 -7 0 C-4.3333581 -1.33332095 -2.83319697 -0.67102033 0 0 Z " fill="#1F4361" transform="translate(85,59)"/>
<path d="M0 0 C26.73 0 53.46 0 81 0 C81 0.33 81 0.66 81 1 C54.27 1 27.54 1 0 1 C0 0.67 0 0.34 0 0 Z " fill="#003C3E" transform="translate(23,22)"/>
<path d="M0 0 C2.31 0.33 4.62 0.66 7 1 C6.67 3.97 6.34 6.94 6 10 C3.36 10 0.72 10 -2 10 C-2.17942163 6.05272412 -2.09350689 3.4019487 0 0 Z " fill="#74AED9" transform="translate(43,58)"/>
<path d="M0 0 C2.64 0 5.28 0 8 0 C8.33 2.97 8.66 5.94 9 9 C6.69 9.33 4.38 9.66 2 10 C0.39644899 6.49223216 -0.22036864 3.85645121 0 0 Z " fill="#75AFDB" transform="translate(41,72)"/>
<path d="M0 0 C24.09 0 48.18 0 73 0 C73 0.33 73 0.66 73 1 C48.91 1 24.82 1 0 1 C0 0.67 0 0.34 0 0 Z " fill="#00003D" transform="translate(27,105)"/>
<path d="M0 0 C2.97 0 5.94 0 9 0 C9 2.64 9 5.28 9 8 C6.03 8 3.06 8 0 8 C0 5.36 0 2.72 0 0 Z " fill="#72ABD7" transform="translate(66,60)"/>
<path d="M0 0 C2.97 0 5.94 0 9 0 C9 2.64 9 5.28 9 8 C6.03 8 3.06 8 0 8 C0 5.36 0 2.72 0 0 Z " fill="#72ABD7" transform="translate(53,60)"/>
<path d="M0 0 C2.97 0 5.94 0 9 0 C9 2.31 9 4.62 9 7 C4.545 7.495 4.545 7.495 0 8 C0 5.36 0 2.72 0 0 Z " fill="#76B1DD" transform="translate(53,72)"/>
<path d="M0 0 C0.33 1.32 0.66 2.64 1 4 C0.34 4 -0.32 4 -1 4 C-1 6.64 -1 9.28 -1 12 C1.97 12 4.94 12 8 12 C8 9.69 8 7.38 8 5 C8.33 5 8.66 5 9 5 C9 7.64 9 10.28 9 13 C7.02090602 13.02686553 5.04171029 13.04633375 3.0625 13.0625 C1.96035156 13.07410156 0.85820313 13.08570312 -0.27734375 13.09765625 C-3 13 -3 13 -4 12 C-4.23287008 10.31816052 -4.41264166 8.6287584 -4.5625 6.9375 C-4.64628906 6.01839844 -4.73007812 5.09929688 -4.81640625 4.15234375 C-4.90728516 3.08693359 -4.90728516 3.08693359 -5 2 C-2 0 -2 0 0 0 Z " fill="#1D4160" transform="translate(54,56)"/>
<path d="M0 0 C0.66 0 1.32 0 2 0 C3.53266582 3.06533164 3.10276471 6.26754272 3.0625 9.625 C3.05798828 10.33140625 3.05347656 11.0378125 3.04882812 11.765625 C3.03703875 13.51045275 3.01910324 15.255237 3 17 C2.01 17 1.02 17 0 17 C0 12.38 0 7.76 0 3 C-7.59 3 -15.18 3 -23 3 C-23 2.67 -23 2.34 -23 2 C-15.41 2 -7.82 2 0 2 C0 1.34 0 0.68 0 0 Z " fill="#264C6C" transform="translate(98,77)"/>
<path d="M0 0 C1.32 0.33 2.64 0.66 4 1 C3.67 4.63 3.34 8.26 3 12 C1.68 12 0.36 12 -1 12 C-1.22162329 10.37675914 -1.42689803 8.751279 -1.625 7.125 C-1.74101563 6.22007813 -1.85703125 5.31515625 -1.9765625 4.3828125 C-1.98429687 3.59648438 -1.99203125 2.81015625 -2 2 C-1.34 1.34 -0.68 0.68 0 0 Z " fill="#103251" transform="translate(85,83)"/>
<path d="M0 0 C2.97 0 5.94 0 9 0 C8.67 1.65 8.34 3.3 8 5 C7.34 5 6.68 5 6 5 C6 5.66 6 6.32 6 7 C4.02 7 2.04 7 0 7 C0 4.69 0 2.38 0 0 Z " fill="#76B1DD" transform="translate(66,72)"/>
<path d="M0 0 C1.32 0.66 2.64 1.32 4 2 C0.25 5 0.25 5 -2 5 C-0.74458443 7.51083114 0.50063488 7.87125446 3 9 C-1.43076923 11.09230769 -1.43076923 11.09230769 -4.3125 10.625 C-4.869375 10.41875 -5.42625 10.2125 -6 10 C-6.33 10.66 -6.66 11.32 -7 12 C-7.66 10.68 -8.32 9.36 -9 8 C-8.43410156 7.50628906 -7.86820313 7.01257812 -7.28515625 6.50390625 C-6.55167969 5.86324219 -5.81820312 5.22257812 -5.0625 4.5625 C-4.33160156 3.92441406 -3.60070313 3.28632812 -2.84765625 2.62890625 C-1.87860647 1.77458541 -0.91348825 0.91348825 0 0 Z " fill="#103351" transform="translate(49,48)"/>
<path d="M0 0 C2.31 0 4.62 0 7 0 C7 2.97 7 5.94 7 9 C3 8 3 8 1.25 5.625 C0 3 0 3 0 0 Z " fill="#75AFDB" transform="translate(55,83)"/>
<path d="M0 0 C0.99 0.33 1.98 0.66 3 1 C2 4 2 4 0 6 C5.28 6 10.56 6 16 6 C16 6.33 16 6.66 16 7 C9.73 7 3.46 7 -3 7 C-3 7.66 -3 8.32 -3 9 C-3.66 9 -4.32 9 -5 9 C-5.33 8.01 -5.66 7.02 -6 6 C-5.34 5.67 -4.68 5.34 -4 5 C-3.67 4.34 -3.34 3.68 -3 3 C-2 1 -2 1 0 0 Z " fill="#0B3351" transform="translate(78,71)"/>
<path d="M0 0 C3.75559487 1.87779744 4.92965108 2.58392428 7 6 C7 6.99 7 7.98 7 9 C4.69 9 2.38 9 0 9 C0 6.03 0 3.06 0 0 Z " fill="#76B1DD" transform="translate(66,48)"/>
<path d="M0 0 C0 2.97 0 5.94 0 9 C-2.31 9 -4.62 9 -7 9 C-6.53149863 4.78348764 -4.94559315 0 0 0 Z " fill="#76B1DD" transform="translate(62,48)"/>
<path d="M0 0 C1.65 0 3.3 0 5 0 C5.25 5.625 5.25 5.625 3 9 C2.01 9 1.02 9 0 9 C0 6.03 0 3.06 0 0 Z " fill="#74AEDA" transform="translate(66,83)"/>
<path d="M0 0 C0.33 0 0.66 0 1 0 C1.33 1.65 1.66 3.3 2 5 C2.66 5 3.32 5 4 5 C5.42857143 13.57142857 5.42857143 13.57142857 3 17 C1.51171875 15.94921875 1.51171875 15.94921875 0 14 C-0.29296875 10.64453125 -0.29296875 10.64453125 -0.1875 6.8125 C-0.16042969 5.54019531 -0.13335937 4.26789063 -0.10546875 2.95703125 C-0.07066406 1.98121094 -0.03585938 1.00539063 0 0 Z M1 11 C2 13 2 13 2 13 Z " fill="#031B35" transform="translate(36,67)"/>
<path d="M0 0 C0.33 1.32 0.66 2.64 1 4 C4.3 4 7.6 4 11 4 C11 4.66 11 5.32 11 6 C8.36 6 5.72 6 3 6 C3 7.65 3 9.3 3 11 C2.01 11 1.02 11 0 11 C0 7.37 0 3.74 0 0 Z " fill="#092D4C" transform="translate(38,65)"/>
<path d="M0 0 C0.33 0.99 0.66 1.98 1 3 C-1.90600261 4.25664978 -3.79604584 5 -7 5 C-7 3.35 -7 1.7 -7 0 C-4.3333581 -1.33332095 -2.83319697 -0.67102033 0 0 Z " fill="#71AAD4" transform="translate(85,59)"/>
<path d="M0 0 C0 0.33 0 0.66 0 1 C-9.57 1 -19.14 1 -29 1 C-29 0.67 -29 0.34 -29 0 C-25.29215008 -0.19800942 -21.58371765 -0.38153245 -17.875 -0.5625 C-16.82828125 -0.61857422 -15.7815625 -0.67464844 -14.703125 -0.73242188 C-9.65148993 -0.97221468 -4.96874491 -1.16052 0 0 Z " fill="#003D40" transform="translate(58,97)"/>
<path d="M0 0 C1.65 0 3.3 0 5 0 C5 0.66 5 1.32 5 2 C5.66 2.33 6.32 2.66 7 3 C6.319375 2.855625 5.63875 2.71125 4.9375 2.5625 C0.82480002 3.17502978 -0.67960513 5.42199318 -3.3515625 8.46875 C-5 10 -5 10 -8 10 C-7.67 9.01 -7.34 8.02 -7 7 C-5.66666667 6.33333333 -4.33333333 5.66666667 -3 5 C-0.86917106 2.78852149 -0.86917106 2.78852149 0 0 Z " fill="#041D44" transform="translate(47,46)"/>
<path d="M0 0 C0.99 2.31 1.98 4.62 3 7 C-1.35535069 5.83857315 -3.64619703 4.92300495 -6 1 C-4 0 -4 0 0 0 Z " fill="#6EA5CD" transform="translate(52,84)"/>
<path d="M0 0 C0 0.99 0 1.98 0 3 C-0.99 2.67 -1.98 2.34 -3 2 C-3 3.32 -3 4.64 -3 6 C-3.99 5.67 -4.98 5.34 -6 5 C-7.1875 2.4375 -7.1875 2.4375 -8 0 C-5.13822943 -1.43088528 -3.06624227 -0.59991697 0 0 Z " fill="#103250" transform="translate(78,49)"/>
<path d="M0 0 C3.93673644 1.31224548 6.22719294 2.91910327 9 6 C7.02 6.33 5.04 6.66 3 7 C2.01 4.69 1.02 2.38 0 0 Z " fill="#6FA6CE" transform="translate(73,49)"/>
<path d="M0 0 C0.66 0.33 1.32 0.66 2 1 C1.01 2.98 0.02 4.96 -1 7 C-2.65 6.67 -4.3 6.34 -6 6 C-6 5.34 -6 4.68 -6 4 C-4.03852126 2.61061923 -2.03833424 1.2739589 0 0 Z " fill="#71AAD3" transform="translate(53,49)"/>
<path d="M0 0 C0.66 0 1.32 0 2 0 C2.33 2.64 2.66 5.28 3 8 C2.01 8.495 2.01 8.495 1 9 C-0.4783226 6.04335481 -0.06032783 3.25770263 0 0 Z " fill="#052645" transform="translate(50,72)"/>
<path d="M0 0 C1.65 0 3.3 0 5 0 C4.67 1.32 4.34 2.64 4 4 C2.68 3.67 1.36 3.34 0 3 C0 2.01 0 1.02 0 0 Z " fill="#689EC7" transform="translate(36,31)"/>
<path d="M0 0 C1.65 0 3.3 0 5 0 C4.67 1.32 4.34 2.64 4 4 C2.68 3.67 1.36 3.34 0 3 C0 2.01 0 1.02 0 0 Z " fill="#689FC7" transform="translate(27,31)"/>
<path d="M0 0 C0.33 0 0.66 0 1 0 C1 1.98 1 3.96 1 6 C0.67 6 0.34 6 0 6 C0 4.02 0 2.04 0 0 Z " fill="#000000" transform="translate(34,67)"/>
<path d="M0 0 C0.33 0 0.66 0 1 0 C1 1.65 1 3.3 1 5 C0.67 5 0.34 5 0 5 C0 3.35 0 1.7 0 0 Z " fill="#004C5D" transform="translate(35,73)"/>
<path d="M0 0 C0.33 0 0.66 0 1 0 C1 1.65 1 3.3 1 5 C0.67 5 0.34 5 0 5 C0 3.35 0 1.7 0 0 Z " fill="#003232" transform="translate(35,62)"/>
<path d="M0 0 C3 1 3 1 3 1 Z " fill="#001111" transform="translate(87,68)"/>
<path d="M0 0 C3 1 3 1 3 1 Z " fill="#001122" transform="translate(82,68)"/>
<path d="M0 0 C2 1 2 1 2 1 Z " fill="#001F1F" transform="translate(101,104)"/>
<path d="M0 0 C2 1 2 1 2 1 Z " fill="#001F1F" transform="translate(25,104)"/>
<path d="M0 0 C2 1 2 1 2 1 Z " fill="#00007F" transform="translate(104,102)"/>
<path d="" fill="#003F6A" transform="translate(0,0)"/>
<path d="" fill="#003F6A" transform="translate(0,0)"/>
<path d="M0 0 C2 1 2 1 2 1 Z " fill="#00001F" transform="translate(27,96)"/>
<path d="M0 0 C2 1 2 1 2 1 Z " fill="#003F3F" transform="translate(50,95)"/>
<path d="M0 0 C2 1 2 1 2 1 Z " fill="#002A2A" transform="translate(48,94)"/>
<path d="M0 0 C2 1 2 1 2 1 Z " fill="#007F7F" transform="translate(85,67)"/>
<path d="M0 0 C2 1 2 1 2 1 Z " fill="#00007F" transform="translate(79,46)"/>
<path d="M0 0 C2 1 2 1 2 1 Z " fill="#002A2A" transform="translate(76,44)"/>
<path d="M0 0 C2 1 2 1 2 1 Z " fill="#002A2A" transform="translate(50,44)"/>
<path d="" fill="#000055" transform="translate(0,0)"/>
<path d="" fill="#000055" transform="translate(0,0)"/>
<path d="" fill="#000000" transform="translate(0,0)"/>
<path d="" fill="#000000" transform="translate(0,0)"/>
<path d="" fill="#000000" transform="translate(0,0)"/>
<path d="" fill="#000055" transform="translate(0,0)"/>
<path d="" fill="#00003F" transform="translate(0,0)"/>
<path d="" fill="#003F3F" transform="translate(0,0)"/>
<path d="" fill="#005555" transform="translate(0,0)"/>
<path d="" fill="#003F3F" transform="translate(0,0)"/>
<path d="" fill="#003F3F" transform="translate(0,0)"/>
<path d="" fill="#003F3F" transform="translate(0,0)"/>
<path d="" fill="#00007F" transform="translate(0,0)"/>
<path d="" fill="#003333" transform="translate(0,0)"/>
<path d="" fill="#000055" transform="translate(0,0)"/>
<path d="" fill="#000055" transform="translate(0,0)"/>
<path d="" fill="#000055" transform="translate(0,0)"/>
<path d="" fill="#000055" transform="translate(0,0)"/>
<path d="" fill="#00003F" transform="translate(0,0)"/>
<path d="" fill="#003F3F" transform="translate(0,0)"/>
<path d="" fill="#00003F" transform="translate(0,0)"/>
<path d="" fill="#003F3F" transform="translate(0,0)"/>
<path d="" fill="#003F3F" transform="translate(0,0)"/>
<path d="" fill="#003F3F" transform="translate(0,0)"/>
<path d="" fill="#003F3F" transform="translate(0,0)"/>
<path d="" fill="#003F3F" transform="translate(0,0)"/>
<path d="" fill="#003F3F" transform="translate(0,0)"/>
<path d="" fill="#00003F" transform="translate(0,0)"/>
<path d="" fill="#000055" transform="translate(0,0)"/>
<path d="" fill="#000055" transform="translate(0,0)"/>
<path d="" fill="#000055" transform="translate(0,0)"/>
<path d="" fill="#005555" transform="translate(0,0)"/>
<path d="" fill="#000055" transform="translate(0,0)"/>
<path d="" fill="#000055" transform="translate(0,0)"/>
<path d="" fill="#000055" transform="translate(0,0)"/>
<path d="" fill="#000055" transform="translate(0,0)"/>
<path d="" fill="#000055" transform="translate(0,0)"/>
<path d="" fill="#000055" transform="translate(0,0)"/>
<path d="" fill="#000000" transform="translate(0,0)"/>
<path d="" fill="#000055" transform="translate(0,0)"/>
</svg>
